<svg width="23" height="25" viewBox="0 0 23 25" fill="none" xmlns="http://www.w3.org/2000/svg">
<path d="M15.8863 1.7746C16.2246 1.38291 16.628 1.07121 17.0731 0.857539C17.5182 0.643863 17.9962 0.532442 18.4795 0.529714C18.9627 0.526987 19.4417 0.633008 19.8887 0.84165C20.3356 1.05029 20.7417 1.35741 21.0834 1.74527C21.4252 2.13312 21.6958 2.59401 21.8797 3.10129C22.0635 3.60857 22.157 4.15219 22.1546 4.70072C22.1523 5.24924 22.0542 5.7918 21.866 6.29703C21.6778 6.80226 21.4032 7.26013 21.0581 7.64419L19.8753 8.98794L20.3703 9.5877C20.77 10.0714 20.9881 10.7126 20.9788 11.3757C20.9694 12.0387 20.7332 12.6717 20.3201 13.1406L18.4955 15.2115C18.3714 15.3524 18.203 15.4315 18.0275 15.4315C17.8519 15.4315 17.6835 15.3524 17.5594 15.2115C17.4353 15.0706 17.3655 14.8795 17.3655 14.6802C17.3655 14.481 17.4353 14.2899 17.5594 14.149L19.384 12.0781C19.5542 11.885 19.6516 11.6244 19.6556 11.3513C19.6595 11.0782 19.5697 10.814 19.4051 10.6147L18.9387 10.0504L8.26199 22.1706C7.8584 22.6287 7.35364 22.955 6.80066 23.1153L1.77815 24.5727C1.66682 24.605 1.54998 24.6039 1.43913 24.5695C1.32829 24.535 1.22726 24.4684 1.14599 24.3761C1.06473 24.2839 1.00603 24.1692 0.975663 24.0434C0.9453 23.9176 0.944325 23.785 0.972833 23.6586L2.25785 17.9585C2.39932 17.3313 2.6868 16.7588 3.09017 16.301L15.8863 1.7746Z" fill="white"/>
</svg>
